<svg id="svg"  version="1.1" xmlns="http://www.w3.org/2000/svg" xmlns:xlink="http://www.w3.org/1999/xlink" width="400" height="400" viewBox="0, 0, 400,400"><g id="svgg"><path id="path0" d="M357.344 55.938 C 357.238 56.109,356.742 56.250,356.243 56.250 C 350.019 56.250,346.548 62.700,348.424 70.781 C 351.927 85.878,350.247 91.493,341.563 93.711 C 335.311 95.308,330.229 98.140,326.050 102.355 C 323.902 104.521,323.214 105.561,318.920 113.125 C 316.069 118.149,313.302 121.445,304.873 129.860 C 300.388 134.338,296.187 138.597,295.537 139.325 C 294.058 140.982,293.881 140.864,293.625 138.054 C 291.573 115.490,269.970 109.459,265.334 130.156 C 264.890 132.135,264.477 138.557,264.700 140.000 C 264.936 141.529,264.038 145.000,263.406 145.000 C 261.552 145.000,258.953 134.211,258.926 126.406 C 258.897 118.176,259.589 117.282,267.484 115.329 C 273.967 113.726,276.431 111.565,277.219 106.789 C 278.740 97.568,267.866 89.946,258.594 93.735 C 254.667 95.339,249.769 97.937,247.897 99.408 C 246.540 100.475,245.664 100.938,245.003 100.938 C 243.482 100.938,241.607 102.019,238.522 104.675 C 236.936 106.041,235.381 107.296,235.068 107.464 C 232.662 108.751,234.202 103.836,237.651 99.219 C 243.598 91.257,239.260 87.119,227.596 89.628 C 223.102 90.594,220.264 90.522,214.567 89.297 C 207.746 87.830,197.913 87.833,185.781 89.305 C 177.071 90.363,176.240 90.441,168.594 90.936 C 139.001 92.851,104.741 91.772,78.906 88.112 C 77.703 87.941,75.664 87.653,74.375 87.472 C 71.586 87.079,64.975 86.053,62.344 85.604 C 58.526 84.952,56.911 84.615,51.719 83.386 C 37.968 80.130,32.260 82.435,30.326 92.027 C 28.951 98.845,28.389 101.688,28.103 103.281 C 27.917 104.313,27.643 105.789,27.494 106.563 C 27.345 107.336,26.929 109.586,26.569 111.563 C 24.501 122.929,23.890 125.217,21.571 130.295 C 13.665 147.599,14.175 161.531,23.525 183.750 C 25.287 187.935,27.580 194.931,28.442 198.750 C 31.148 210.741,33.123 213.097,45.938 219.627 C 48.430 220.897,51.313 222.450,52.344 223.077 C 55.487 224.991,58.209 224.461,59.529 221.679 C 61.417 217.701,59.331 215.589,47.656 209.660 C 40.532 206.041,40.243 205.722,38.746 199.844 C 37.264 194.024,36.069 190.445,32.749 181.875 C 31.383 178.352,30.142 175.188,29.989 174.844 C 24.360 162.168,24.078 147.765,29.235 136.406 C 32.701 128.774,34.481 122.811,35.905 114.063 C 36.725 109.024,38.124 100.258,38.449 98.125 C 39.557 90.852,40.788 89.711,45.729 91.383 C 48.813 92.426,52.600 93.368,56.406 94.038 C 69.205 96.292,88.851 98.917,97.500 99.529 C 98.961 99.633,101.773 99.848,103.750 100.007 C 115.286 100.939,119.985 101.088,137.969 101.091 C 150.369 101.093,158.997 100.954,162.656 100.693 C 170.931 100.104,178.130 99.534,181.406 99.209 C 199.958 97.367,206.736 97.201,211.875 98.463 C 215.749 99.415,216.508 99.501,221.172 99.515 C 223.965 99.524,226.250 99.632,226.250 99.756 C 226.250 99.880,225.898 101.058,225.469 102.374 C 221.227 115.368,232.496 122.177,243.125 113.043 C 244.998 111.433,245.751 110.986,246.875 110.816 C 247.932 110.655,249.094 110.022,251.555 108.263 C 259.683 102.453,264.521 100.905,267.006 103.318 C 268.814 105.074,267.889 105.996,263.397 106.913 C 253.162 109.003,248.551 115.752,249.682 126.986 C 251.726 147.293,255.435 154.789,263.430 154.776 C 270.250 154.764,274.040 148.613,274.073 137.500 C 274.093 130.943,275.552 126.875,277.886 126.875 C 280.699 126.875,284.359 134.037,284.381 139.587 C 284.431 151.990,291.045 156.183,299.249 149.012 C 311.620 138.197,322.819 125.569,327.378 117.294 C 327.789 116.548,328.485 115.284,328.925 114.486 C 332.541 107.928,335.643 105.524,344.128 102.703 C 346.466 101.926,349.131 100.913,350.049 100.452 C 358.529 96.195,361.038 85.774,357.643 68.906 C 356.898 65.205,356.838 65.463,358.438 65.513 C 361.789 65.618,367.356 68.256,370.174 71.075 C 375.189 76.090,375.542 86.586,370.805 89.776 C 357.623 98.650,353.338 112.188,361.059 120.564 L 362.331 121.944 361.400 122.721 C 360.261 123.671,355.366 126.878,352.188 128.757 C 344.997 133.006,342.505 138.923,342.517 151.719 C 342.523 157.618,342.681 159.661,344.094 172.031 C 345.592 185.137,345.287 186.149,335.752 199.752 C 334.221 201.935,331.773 205.427,330.313 207.512 C 328.852 209.596,326.984 212.239,326.163 213.385 C 320.422 221.396,319.292 224.152,319.287 230.156 C 319.281 236.221,320.183 238.418,330.701 257.969 C 335.826 267.496,337.242 274.825,334.313 276.673 C 332.204 278.003,323.370 267.221,321.985 261.626 C 319.362 251.030,315.309 245.040,309.531 243.216 C 304.862 241.743,293.512 243.696,290.762 246.446 C 287.333 249.875,291.388 255.387,296.157 253.782 C 306.943 250.150,309.867 251.794,312.697 263.082 C 314.290 269.439,317.767 275.012,324.044 281.273 C 337.058 294.253,350.044 280.416,342.519 261.588 C 341.119 258.084,337.827 251.385,333.754 243.750 C 327.057 231.196,326.864 227.616,332.497 220.469 C 335.196 217.044,344.774 203.314,348.486 197.549 C 354.159 188.739,354.757 185.134,353.140 169.531 C 352.073 159.230,351.877 156.435,351.876 151.505 C 351.875 143.433,352.820 139.592,355.211 137.963 C 355.868 137.515,358.164 136.078,360.313 134.769 C 374.552 126.092,377.960 118.872,369.639 115.010 C 363.681 112.244,366.237 105.094,375.544 98.495 C 381.502 94.271,383.952 88.284,383.340 79.444 C 382.542 67.912,372.268 57.607,360.325 56.358 C 359.287 56.250,358.438 56.040,358.438 55.893 C 358.438 55.521,357.580 55.556,357.344 55.938 M122.789 133.931 L 122.031 134.738 121.950 178.775 L 121.869 222.813 96.794 222.818 L 71.719 222.823 70.478 223.526 C 65.488 226.352,67.883 231.674,76.268 236.388 C 86.529 242.158,89.088 245.111,92.670 255.313 C 99.713 275.370,109.930 280.935,122.165 271.378 C 132.474 263.324,145.941 260.792,150.823 265.989 C 153.996 269.367,167.774 289.653,171.800 296.875 C 172.231 297.648,172.691 298.422,172.822 298.594 C 174.637 300.973,178.935 310.895,181.556 318.755 C 186.266 332.884,189.484 336.146,202.344 339.833 C 205.094 340.622,208.713 341.697,210.387 342.223 C 212.060 342.749,214.345 343.337,215.465 343.528 C 216.584 343.720,217.500 343.989,217.500 344.126 C 217.500 344.428,220.434 344.462,220.733 344.163 C 220.850 344.046,221.600 343.724,222.401 343.448 C 225.701 342.308,226.558 339.725,225.070 335.404 C 221.546 325.172,222.113 313.955,226.574 305.686 C 230.415 298.565,234.667 295.257,250.728 286.896 C 269.892 276.920,276.467 270.391,279.536 258.291 C 282.275 247.496,281.041 237.952,274.263 217.495 C 270.101 204.935,269.888 204.141,268.129 194.688 C 265.629 181.249,261.836 178.449,246.563 178.771 C 231.735 179.084,218.543 178.857,211.520 178.168 C 204.547 177.485,196.951 176.440,190.859 175.328 C 189.871 175.148,188.324 174.867,187.422 174.705 C 185.340 174.332,183.417 173.933,179.688 173.101 C 178.055 172.736,176.112 172.314,175.370 172.162 C 174.628 172.010,173.890 171.805,173.729 171.706 C 173.554 171.598,173.438 164.283,173.438 153.404 C 173.438 134.259,173.409 133.853,172.017 133.319 C 171.739 133.212,160.719 133.125,147.529 133.125 L 123.546 133.125 122.789 133.931 " stroke="none" fill="#2d3d73" fill-rule="evenodd"></path><path id="path1" d="M0.000 200.000 L 0.000 400.000 200.000 400.000 L 400.000 400.000 400.000 200.000 L 400.000 0.000 200.000 0.000 L 0.000 0.000 0.000 200.000 M358.438 55.893 C 358.438 56.040,359.287 56.250,360.325 56.358 C 372.268 57.607,382.542 67.912,383.340 79.444 C 383.952 88.284,381.502 94.271,375.544 98.495 C 366.237 105.094,363.681 112.244,369.639 115.010 C 377.960 118.872,374.552 126.092,360.313 134.769 C 358.164 136.078,355.868 137.515,355.211 137.963 C 352.820 139.592,351.875 143.433,351.876 151.505 C 351.877 156.435,352.073 159.230,353.140 169.531 C 354.757 185.134,354.159 188.739,348.486 197.549 C 344.774 203.314,335.196 217.044,332.497 220.469 C 326.864 227.616,327.057 231.196,333.754 243.750 C 337.827 251.385,341.119 258.084,342.519 261.588 C 350.044 280.416,337.058 294.253,324.044 281.273 C 317.767 275.012,314.290 269.439,312.697 263.082 C 309.867 251.794,306.943 250.150,296.157 253.782 C 291.388 255.387,287.333 249.875,290.762 246.446 C 293.512 243.696,304.862 241.743,309.531 243.216 C 315.309 245.040,319.362 251.030,321.985 261.626 C 323.370 267.221,332.204 278.003,334.313 276.673 C 337.242 274.825,335.826 267.496,330.701 257.969 C 320.183 238.418,319.281 236.221,319.287 230.156 C 319.292 224.152,320.422 221.396,326.163 213.385 C 326.984 212.239,328.852 209.596,330.313 207.512 C 331.773 205.427,334.221 201.935,335.752 199.752 C 345.287 186.149,345.592 185.137,344.094 172.031 C 342.681 159.661,342.523 157.618,342.517 151.719 C 342.505 138.923,344.997 133.006,352.188 128.757 C 355.366 126.878,360.261 123.671,361.400 122.721 L 362.331 121.944 361.059 120.564 C 353.338 112.188,357.623 98.650,370.805 89.776 C 375.542 86.586,375.189 76.090,370.174 71.075 C 367.356 68.256,361.789 65.618,358.438 65.513 C 356.838 65.463,356.898 65.205,357.643 68.906 C 361.038 85.774,358.529 96.195,350.049 100.452 C 349.131 100.913,346.466 101.926,344.128 102.703 C 335.643 105.524,332.541 107.928,328.925 114.486 C 328.485 115.284,327.789 116.548,327.378 117.294 C 322.819 125.569,311.620 138.197,299.249 149.012 C 291.045 156.183,284.431 151.990,284.381 139.587 C 284.359 134.037,280.699 126.875,277.886 126.875 C 275.552 126.875,274.093 130.943,274.073 137.500 C 274.040 148.613,270.250 154.764,263.430 154.776 C 255.435 154.789,251.726 147.293,249.682 126.986 C 248.551 115.752,253.162 109.003,263.397 106.913 C 267.889 105.996,268.814 105.074,267.006 103.318 C 264.521 100.905,259.683 102.453,251.555 108.263 C 249.094 110.022,247.932 110.655,246.875 110.816 C 245.751 110.986,244.998 111.433,243.125 113.043 C 232.496 122.177,221.227 115.368,225.469 102.374 C 225.898 101.058,226.250 99.880,226.250 99.756 C 226.250 99.632,223.965 99.524,221.172 99.515 C 216.508 99.501,215.749 99.415,211.875 98.463 C 206.736 97.201,199.958 97.367,181.406 99.209 C 178.130 99.534,170.931 100.104,162.656 100.693 C 158.997 100.954,150.369 101.093,137.969 101.091 C 119.985 101.088,115.286 100.939,103.750 100.007 C 101.773 99.848,98.961 99.633,97.500 99.529 C 88.851 98.917,69.205 96.292,56.406 94.038 C 52.600 93.368,48.813 92.426,45.729 91.383 C 40.788 89.711,39.557 90.852,38.449 98.125 C 38.124 100.258,36.725 109.024,35.905 114.063 C 34.481 122.811,32.701 128.774,29.235 136.406 C 24.078 147.765,24.360 162.168,29.989 174.844 C 32.783 181.135,37.175 193.676,38.746 199.844 C 40.243 205.722,40.532 206.041,47.656 209.660 C 59.331 215.589,61.417 217.701,59.529 221.679 C 58.209 224.461,55.487 224.991,52.344 223.077 C 51.313 222.450,48.430 220.897,45.938 219.627 C 33.123 213.097,31.148 210.741,28.442 198.750 C 27.580 194.931,25.287 187.935,23.525 183.750 C 14.175 161.531,13.665 147.599,21.571 130.295 C 23.890 125.217,24.501 122.929,26.569 111.563 C 26.929 109.586,27.345 107.336,27.494 106.563 C 27.643 105.789,27.917 104.313,28.103 103.281 C 28.389 101.688,28.951 98.845,30.326 92.027 C 32.260 82.435,37.968 80.130,51.719 83.386 C 56.911 84.615,58.526 84.952,62.344 85.604 C 64.975 86.053,71.586 87.079,74.375 87.472 C 75.664 87.653,77.703 87.941,78.906 88.112 C 104.741 91.772,139.001 92.851,168.594 90.936 C 176.240 90.441,177.071 90.363,185.781 89.305 C 197.913 87.833,207.746 87.830,214.567 89.297 C 220.264 90.522,223.102 90.594,227.596 89.628 C 239.260 87.119,243.598 91.257,237.651 99.219 C 234.202 103.836,232.662 108.751,235.068 107.464 C 235.381 107.296,236.936 106.041,238.522 104.675 C 241.607 102.019,243.482 100.938,245.003 100.938 C 245.664 100.938,246.540 100.475,247.897 99.408 C 249.769 97.937,254.667 95.339,258.594 93.735 C 267.866 89.946,278.740 97.568,277.219 106.789 C 276.431 111.565,273.967 113.726,267.484 115.329 C 259.589 117.282,258.897 118.176,258.926 126.406 C 258.953 134.211,261.552 145.000,263.406 145.000 C 264.038 145.000,264.936 141.529,264.700 140.000 C 263.732 133.733,266.341 124.234,269.962 120.847 C 279.335 112.080,292.108 121.367,293.625 138.054 C 293.881 140.864,294.058 140.982,295.537 139.325 C 296.187 138.597,300.388 134.338,304.873 129.860 C 313.302 121.445,316.069 118.149,318.920 113.125 C 323.214 105.561,323.902 104.521,326.050 102.355 C 330.229 98.140,335.311 95.308,341.563 93.711 C 350.247 91.493,351.927 85.878,348.424 70.781 C 346.548 62.700,350.019 56.250,356.243 56.250 C 356.742 56.250,357.238 56.109,357.344 55.938 C 357.580 55.556,358.438 55.521,358.438 55.893 M172.017 133.319 C 173.409 133.853,173.438 134.259,173.438 153.404 C 173.438 164.283,173.554 171.598,173.729 171.706 C 173.890 171.805,174.628 172.010,175.370 172.162 C 176.112 172.314,178.055 172.736,179.688 173.101 C 183.417 173.933,185.340 174.332,187.422 174.705 C 188.324 174.867,189.871 175.148,190.859 175.328 C 196.951 176.440,204.547 177.485,211.520 178.168 C 218.543 178.857,231.735 179.084,246.563 178.771 C 261.836 178.449,265.629 181.249,268.129 194.688 C 269.888 204.141,270.101 204.935,274.263 217.495 C 281.041 237.952,282.275 247.496,279.536 258.291 C 276.467 270.391,269.892 276.920,250.728 286.896 C 234.667 295.257,230.415 298.565,226.574 305.686 C 222.113 313.955,221.546 325.172,225.070 335.404 C 226.558 339.725,225.701 342.308,222.401 343.448 C 221.600 343.724,220.850 344.046,220.733 344.163 C 220.434 344.462,217.500 344.428,217.500 344.126 C 217.500 343.989,216.584 343.720,215.465 343.528 C 214.345 343.337,212.060 342.749,210.387 342.223 C 208.713 341.697,205.094 340.622,202.344 339.833 C 189.484 336.146,186.266 332.884,181.556 318.755 C 178.935 310.895,174.637 300.973,172.822 298.594 C 172.691 298.422,172.231 297.648,171.800 296.875 C 167.774 289.653,153.996 269.367,150.823 265.989 C 145.941 260.792,132.474 263.324,122.165 271.378 C 109.930 280.935,99.713 275.370,92.670 255.313 C 89.088 245.111,86.529 242.158,76.268 236.388 C 67.883 231.674,65.488 226.352,70.478 223.526 L 71.719 222.823 96.794 222.818 L 121.869 222.813 121.950 178.775 L 122.031 134.738 122.789 133.931 L 123.546 133.125 147.529 133.125 C 160.719 133.125,171.739 133.212,172.017 133.319 " stroke="none" fill="#fbe364" fill-rule="evenodd"></path></g></svg>
